<?xml version="1.0" encoding="UTF-8"?><svg id="a" xmlns="http://www.w3.org/2000/svg" viewBox="0 0 600 124.67"><defs><style>.b{fill:#5a0ffa;}</style></defs><path class="b" d="M204.86,2.46h-50.74c-3.44,0-6.23,2.79-6.23,6.23V122.21h20.29c3.44,0,6.23-2.79,6.23-6.23v-29.12h27.87c27.04,0,48.74-14.47,48.74-42.37v-.35c0-24.63-17.4-41.68-46.16-41.68Zm19.29,42.55c0,10.32-7.75,18.25-21.01,18.25h-28.73V26.4h28.21c13.26,0,21.53,6.38,21.53,18.26v.35Z"/><path class="b" d="M481.35,2.46h-91.58c-3.43,0-6.23,2.81-6.23,6.23V26.92h35.65V122.21h20.29c3.44,0,6.23-2.79,6.23-6.23V26.92h29.41c3.43,0,6.23-2.81,6.23-6.23V2.46Z"/><g><path class="b" d="M30.54,78.33l-23.19,13.39c.65,1.21,1.33,2.38,2.06,3.54l23.17-13.38c-.75-1.14-1.42-2.33-2.03-3.55Z"/><path class="b" d="M27.37,69.04L1.51,75.97c.38,1.72,.83,3.42,1.35,5.08l25.89-6.94c-.58-1.64-1.05-3.33-1.38-5.07Z"/><path class="b" d="M62.34,0c-2.27,0-4.51,.13-6.71,.36V13.37L52.26,.82c-4.11,.67-8.09,1.74-11.89,3.17l4.56,17-8.79-15.21c-3.38,1.57-6.6,3.44-9.62,5.56l11.27,19.49-15.9-15.9c-2.53,2.16-4.88,4.52-7.04,7.06l18.77,18.77L10.64,27.49c-1.63,2.42-3.1,4.96-4.39,7.61l23.24,13.42c1.14-2.7,2.63-5.2,4.36-7.51,.02-.02,.04-.05,.06-.07,1.76-2.34,3.79-4.47,6.06-6.3,.3-.24,.61-.46,.92-.69,2-1.51,4.16-2.82,6.46-3.89,.74-.34,1.49-.66,2.26-.96,1.93-.74,3.93-1.33,6-1.73,1.19-.23,2.4-.39,3.62-.5,1.03-.09,2.06-.16,3.11-.16,19.67,0,35.62,15.95,35.62,35.62s-15.95,35.62-35.62,35.62c-9.84,0-18.74-3.99-25.19-10.43l-18.89,18.89c11.28,11.28,26.86,18.26,44.08,18.26,34.43,0,62.34-27.91,62.34-62.34S96.77,0,62.34,0Z"/><path class="b" d="M26.71,62.34c0-1.07,.07-2.13,.16-3.18H.08C.03,60.21,0,61.27,0,62.34s.03,2.18,.08,3.26H26.88c-.1-1.08-.17-2.16-.17-3.26Z"/><path class="b" d="M29.11,49.57L3.2,42.63c-.8,2.39-1.46,4.84-1.97,7.35l25.94,6.95c.39-2.55,1.04-5.01,1.94-7.36Z"/></g><path class="b" d="M579.1,122.21h20.9L549.38,2.46h-19.76c-2.5,0-4.77,1.5-5.74,3.81l-49.01,115.95h20.9c3.4,0,6.45-2.07,7.72-5.22l8.07-20.14h51.76l8.07,20.14c1.26,3.15,4.32,5.22,7.72,5.22Zm-58.16-48.78l16.5-41.17,16.5,41.17h-32.99Z"/><path class="b" d="M300.58,98.61v-24.48h49.86c3.43,0,6.23-2.81,6.23-6.23v-17.35h-56.1V26.06h57.62c3.43,0,6.23-2.81,6.23-6.23V2.46h-83.97c-3.44,0-6.23,2.79-6.23,6.23V115.98c0,3.44,2.79,6.23,6.23,6.23h78.59c3.43,0,6.23-2.81,6.23-6.23v-17.37h-64.71Z"/></svg>