<?xml version="1.0" encoding="UTF-8"?><svg id="a" xmlns="http://www.w3.org/2000/svg" xmlns:xlink="http://www.w3.org/1999/xlink" viewBox="0 0 1200 1200"><defs><style>.c{fill:#2a1bfa;}.d{fill:#4e12fa;}.e{fill:#3618fa;}.f{fill:url(#b);}.g{fill:#4215fa;}</style><linearGradient id="b" x1="630.1" y1="1200" x2="630.1" y2="0" gradientTransform="matrix(1, 0, 0, 1, 0, 0)" gradientUnits="userSpaceOnUse"><stop offset=".35" stop-color="#1e1efa"/><stop offset=".55" stop-color="#5a0ffa"/></linearGradient></defs><path class="c" d="M293.94,753.93l-223.17,128.85c6.22,11.61,12.84,22.95,19.78,34.09l222.96-128.76c-7.21-10.95-13.64-22.41-19.58-34.18Z"/><path class="e" d="M263.4,664.53L14.56,731.19c3.69,16.56,7.95,32.91,12.99,48.93l249.17-66.76c-5.54-15.81-10.12-32.05-13.31-48.82Z"/><path class="f" d="M600,0c-21.84,0-43.38,1.24-64.61,3.51l-.07,125.22L502.96,7.93c-39.58,6.44-77.84,16.74-114.43,30.52l43.85,163.6L347.75,55.61c-32.57,15.11-63.52,33.07-92.6,53.54l108.49,187.61L210.56,143.75c-24.35,20.81-47.01,43.5-67.75,67.91l180.67,180.63-221.07-127.65c-15.73,23.29-29.82,47.77-42.21,73.24l223.71,129.14c10.94-25.97,25.28-50.08,41.97-72.33,.17-.23,.35-.47,.52-.7,16.97-22.51,36.45-42.98,58.36-60.68,2.85-2.3,5.89-4.38,8.82-6.6,19.26-14.57,40.06-27.13,62.18-37.42,7.12-3.31,14.35-6.37,21.72-9.2,18.56-7.12,37.8-12.82,57.76-16.63,11.44-2.19,23.07-3.77,34.87-4.79,9.87-.86,19.8-1.51,29.89-1.51,189.36,0,342.87,153.51,342.87,342.87s-153.51,342.87-342.87,342.87c-94.68,0-180.4-38.38-242.45-100.43l-181.8,181.84c108.58,108.58,258.57,175.73,424.26,175.73,331.37,0,600-268.63,600-600S931.37,0,600,0Z"/><path class="g" d="M257.13,600c0-10.35,.65-20.54,1.55-30.65H.78c-.52,10.15-.78,20.37-.78,30.65s.29,20.99,.82,31.39H258.72c-.94-10.35-1.59-20.79-1.59-31.39Z"/><path class="d" d="M280.21,477.12L30.79,410.29c-7.66,23-14.09,46.56-18.95,70.71l249.65,66.93c3.76-24.56,10.03-48.24,18.71-70.8Z"/></svg>