<?xml version="1.0" encoding="UTF-8"?><svg id="a" xmlns="http://www.w3.org/2000/svg" viewBox="0 0 600 600"><defs><style>.b{fill:#fff;}</style></defs><path class="b" d="M146.97,376.97l-111.59,64.43c3.11,5.8,6.42,11.48,9.89,17.05l111.48-64.38c-3.6-5.47-6.82-11.21-9.79-17.09Z"/><path class="b" d="M131.7,332.27L7.28,365.59c1.85,8.28,3.98,16.46,6.49,24.46l124.59-33.38c-2.77-7.91-5.06-16.02-6.66-24.41Z"/><path class="b" d="M300,0c-10.92,0-21.69,.62-32.3,1.76l-.04,62.61L251.48,3.96c-19.79,3.22-38.92,8.37-57.22,15.26l21.93,81.8L173.88,27.8c-16.29,7.56-31.76,16.54-46.31,26.77l54.25,93.8L105.28,71.88c-12.17,10.4-23.5,21.75-33.88,33.95l90.34,90.31-110.54-63.83c-7.87,11.65-14.91,23.89-21.1,36.62l111.86,64.57c5.47-12.99,12.64-25.04,20.98-36.16,.09-.12,.18-.24,.27-.35,8.49-11.25,18.22-21.49,29.18-30.34,1.43-1.15,2.94-2.19,4.41-3.3,9.63-7.29,20.03-13.57,31.09-18.71,3.56-1.66,7.17-3.18,10.86-4.6,9.28-3.56,18.9-6.41,28.88-8.32,5.72-1.1,11.53-1.89,17.44-2.4,4.93-.43,9.9-.76,14.94-.76,94.68,0,171.43,76.75,171.43,171.43s-76.76,171.43-171.43,171.43c-47.34,0-90.2-19.19-121.23-50.22l-90.9,90.92c54.29,54.29,129.29,87.86,212.13,87.86,165.68,0,300-134.31,300-300S465.68,0,300,0Z"/><path class="b" d="M128.57,300c0-5.17,.32-10.27,.78-15.32H.39C.13,289.75,0,294.86,0,300s.14,10.5,.41,15.7H129.36c-.47-5.18-.8-10.4-.8-15.7Z"/><path class="b" d="M140.1,238.56L15.4,205.14c-3.83,11.5-7.05,23.28-9.47,35.36l124.83,33.46c1.88-12.28,5.01-24.12,9.35-35.4Z"/></svg>